<?xml version="1.0" encoding="UTF-8" standalone="no"?>
<svg xmlns:dc="http://purl.org/dc/elements/1.1/" xmlns:cc="http://creativecommons.org/ns#" xmlns:rdf="http://www.w3.org/1999/02/22-rdf-syntax-ns#" xmlns:svg="http://www.w3.org/2000/svg" xmlns="http://www.w3.org/2000/svg" xmlns:sodipodi="http://sodipodi.sourceforge.net/DTD/sodipodi-0.dtd" xmlns:inkscape="http://www.inkscape.org/namespaces/inkscape" version="1.1" width="8196" height="4324" viewBox="0 0 8200 4326">
  <metadata>
    <rdf:RDF>
      <cc:Work rdf:about="">
        <dc:format>image/svg+xml</dc:format>
        <dc:type rdf:resource="http://purl.org/dc/dcmitype/StillImage"/>
        <dc:date>2008-01-12</dc:date>
        <dc:creator>
          <cc:Agent>
            <dc:title>Jerzy Jalocha N</dc:title>
          </cc:Agent>
        </dc:creator>
        <dc:title/>
        <dc:rights>
          <cc:Agent>
            <dc:title>No rights reserved.</dc:title>
          </cc:Agent>
        </dc:rights>
        <cc:license rdf:resource="http://web.resource.org/cc/PublicDomain"/>
        <dc:description>Summary of the most common display resolutions.</dc:description>
      </cc:Work>
      <cc:License rdf:about="http://web.resource.org/cc/PublicDomain">
        <cc:permits rdf:resource="http://web.resource.org/cc/Reproduction"/>
        <cc:permits rdf:resource="http://web.resource.org/cc/Distribution"/>
        <cc:permits rdf:resource="http://web.resource.org/cc/DerivativeWorks"/>
      </cc:License>
    </rdf:RDF>
  </metadata>
  <style type="text/css">
		circle {
			stroke-width: 6;
		}
    text {
			font-size: 56px;
			text-anchor: middle;
    }
    .crcl-txt {
      font-size: 40px;
      text-anchor: middle;
    }
    .rect-125 { <!-- 5:4 yellow -->
      fill: none;
      stroke: #c4a000;
      stroke-width: 1;
    }
    .rect-133 { <!-- 4:3 red -->
      fill: none;
      stroke: #a40000;
      stroke-width: 1;
    }
    .rect-150 { <!-- 3:2 green -->
			fill: none;
      stroke: #4e9a06;
      stroke-width: 1;
    }
    .rect-160 { <!-- 8:5 purple -->
      fill: none;
      stroke: #5c3566;
      stroke-width: 1;
    }
    .rect-167 { <!-- 5:3 orange -->
      fill: none;
      stroke: #ce5c00;
      stroke-width: 1;
    }
    .rect-178 { <!-- 16:9 blue -->
      fill: none;
      stroke: #204a87;
      stroke-width: 1;
    }
    .rect-189 { <!-- 17:9 tan -->
      fill: none;
      stroke: #8f5902;
      stroke-width: 1;
    }
    .rect-233 { <!-- 21:9 pink -->
      fill: none;
      stroke: #b03060;
      stroke-width: 1;
    }
    .txtbox-125 { <!-- 5:4 yellow -->
      fill: #fce94f;
      stroke: #c4a000;
      stroke-width: 6;
			stroke-linejoin: round;
    }
    .txtbox-133 { <!-- 4:3 red -->
      fill: #ef2929;
      stroke: #a40000;
      stroke-width: 6;
			stroke-linejoin: round;
    }
    .txtbox-150 { <!-- 3:2 green -->
			fill: #8ae234;
      stroke: #4e9a06;
      stroke-width: 6;
      stroke-linejoin: round;
    }
    .txtbox-160 { <!-- 8:5 purple -->
      fill: #ad7fa8;
      stroke: #5c3566;
      stroke-width: 6;
			stroke-linejoin: round;
    }
    .txtbox-167 { <!-- 5:3 orange -->
      fill: #fcaf3e;
      stroke: #ce5c00;
      stroke-width: 6;
			stroke-linejoin: round;
    }
    .txtbox-178 { <!-- 16:9 blue -->
      fill: #729fcf;
      stroke: #204a87;
      stroke-width: 6;
			stroke-linejoin: round;
    }
    .txtbox-189 { <!-- 17:9 tan -->
      fill: #e9b96e;
      stroke: #8f5902;
      stroke-width: 6;
			stroke-linejoin: round;
    }
    .txtbox-233 { <!-- 21:9 pink -->
      fill: #ffc0cb;
      stroke: #b03060;
      stroke-width: 6;
			stroke-linejoin: round;
    }
		.txtboxarrow {
			marker-start: url(#Arrow);
			stroke: #000000;
			stroke-width: 2;
		}
  </style>
  <defs>
		<marker orient="auto-start-reverse" refY="0" refX="0" id="Arrow" style="overflow:visible">
			<path d="M 8.7185878,4.0337352 -2.2072895,0.01601326 8.7185884,-4.0017078 c -1.7454984,2.3720609 -1.7354408,5.6174519 -6e-7,8.035443 z" transform="scale(-0.7,-0.7 )"/>
		</marker>
  </defs>
	<g id="White-Background">
		<rect x="0" y="0" width="8192" height="4320" style="fill:#ffffff"/>
	</g>
	<g id="Rectangles-showing-the-resolution-sizes">
    <rect id="rect-8192x4320" class="rect-189" x="0" y="0" width="8192" height="4320"/>
    <rect id="rect-7680x4320" class="rect-178" x="0" y="0" width="7680" height="4320"/>
    <rect id="rect-5120x2880" class="rect-178" x="0" y="0" width="5120" height="2880"/>
    <rect id="rect-5120x2160" class="rect-233" x="0" y="0" width="5120" height="2160"/>
    <rect id="rect-4096x2160" class="rect-189" x="0" y="0" width="4096" height="2160"/>
    <rect id="rect-3840x2160" class="rect-178" x="0" y="0" width="3840" height="2160"/>
    <rect id="rect-3440x1440" class="rect-233" x="0" y="0" width="3440" height="1440"/>
    <rect id="rect-2560x2048" class="rect-125" x="0" y="0" width="2560" height="2048"/>
    <rect id="rect-2560x1600" class="rect-160" x="0" y="0" width="2560" height="1600"/>
    <rect id="rect-2560x1440" class="rect-178" x="0" y="0" height="1440" width="2560"/>
    <rect id="rect-2560x1080" class="rect-233" x="0" y="0" width="2559" height="1079"/>
    <rect id="rect-2048x1536" class="rect-133" x="0" y="0" width="2048" height="1536"/>
    <rect id="rect-2048x1080" class="rect-189" x="0" y="0" width="2048" height="1080"/>
    <rect id="rect-1920x1200" class="rect-160" x="0" y="0" width="1920" height="1200"/>
    <rect id="rect-1920x1080" class="rect-178" x="0" y="0" width="1920" height="1080"/>
    <rect id="rect-1680x1050" class="rect-160" x="0" y="0" width="1680" height="1050"/>
    <rect id="rect-1600x1200" class="rect-133" x="0" y="0" width="1600" height="1200"/>
    <rect id="rect-1600x900" class="rect-178" x="0" y="0" width="1600" height="900"/>
    <rect id="rect-1440x1080" class="rect-133" x="0" y="0" width="1440" height="1080"/>
    <rect id="rect-1400x1050" class="rect-133" x="0" y="0" width="1400" height="1050"/>
    <rect id="rect-1440x960" class="rect-150" x="0" y="0" width="1440" height="960"/>
    <rect id="rect-1440x900" class="rect-160" x="0" y="0" width="1440" height="900"/>
    <rect id="rect-1366x768" class="rect-160" x="0" y="0" width="1366" height="768"/>
    <rect id="rect-1280x1024" class="rect-125" x="0" y="0" width="1280" height="1024"/>
    <rect id="rect-1280x960" class="rect-133" x="0" y="0" width="1280" height="960"/>
    <rect id="rect-1280x854" class="rect-150" x="0" y="0" width="1280" height="854"/>
    <rect id="rect-1280x800" class="rect-160" x="0" y="0" width="1280" height="800"/>
    <rect id="rect-1280x768" class="rect-167" x="0" y="0" width="1280" height="768"/>
    <rect id="rect-1280x720" class="rect-178" x="0" y="0" width="1280" height="720"/>
    <rect id="rect-1152x864" class="rect-133" x="0" y="0" width="1152" height="864"/>
    <rect id="rect-1152x768" class="rect-150" x="0" y="0" width="1152" height="768"/>
    <rect id="rect-1024x768" class="rect-133" x="0" y="0" width="1024" height="768"/>
    <rect id="rect-1024x600" class="rect-178" x="0" y="0" width="1024" height="600"/>
    <rect id="rect-1024x576" class="rect-178" x="0" y="0" width="1024" height="576"/>
    <rect id="rect-854x480" class="rect-178" x="0" y="0" width="854" height="480"/>
    <rect id="rect-800x600" class="rect-133" x="0" y="0" width="800" height="600"/>
    <rect id="rect-800x480" class="rect-167" x="0" y="0" width="800" height="480"/>
    <rect id="rect-768x576" class="rect-133" x="0" y="0" width="768" height="576"/>
    <rect id="rect-640x480" class="rect-133" x="0" y="0" width="640" height="480"/>
    <rect id="rect-480x320" class="rect-150" x="0" y="0" width="480" height="320"/>
    <rect id="rect-384x288" class="rect-133" x="0" y="0" width="384" height="288"/>
    <rect id="rect-320x240" class="rect-133" x="0" y="0" width="320" height="240"/>
    <rect id="rect-320x200" class="rect-160" x="0" y="0" width="320" height="200"/>
	</g>
	<g id="Diagonal-Fan-Lines">
	  <path class="rect-125" d="M 0,0 5403,4321" style="stroke-width:3"/>
	  <path class="rect-133" d="M 0,0 5763,4321" style="stroke-width:3"/>
	  <path class="rect-150" d="M 0,0 6489,4321" style="stroke-width:3"/>
	  <path class="rect-160" d="M 0,0 6916,4321" style="stroke-width:3"/>
	  <path class="rect-167" d="M 0,0 7229,4321" style="stroke-width:3"/>
	  <path class="rect-178" d="M 0,0 7679,4321" style="stroke-width:3"/>
	  <path class="rect-189" d="M 0,0 8192,4321" style="stroke-width:3"/>
	  <path class="rect-233" d="M 0,0 8192,3452" style="stroke-width:3"/>
	</g>
	<g id="Group-of-Text-Boxes">
		<g id="R-8192x4320">
	    <path class="txtboxarrow" d="m 8192,4320 -75,-220"/>
	    <rect x="7700" y="4000" width="420" height="105" class="txtbox-189"/>
	    <text x="7910" y="4050">8K Full Format
	    </text>
	    <text style="font-size:32px" x="7910" y="4085">8192 × 4320
	    </text>
		</g>
    <g id="UHD-2-7680x4320">
	    <path class="txtboxarrow" d="m 7680,4320 -190,-220"/>
	    <rect x="7220" y="4000" width="270" height="105" class="txtbox-178"/>
	    <text x="7355" y="4050">UHD-2</text>
	    <text style="font-size:32px" x="7355" y="4085">7680 × 4320</text>
    </g>
    <g id="R-5120x2880">
	    <path class="txtboxarrow" d="m 5120,2880 -250,-480"/>
			<rect x="4600" y="2300" width="270" height="105" class="txtbox-178"/>
      <text x="4735" y="2350">5K
      </text>
      <text style="font-size:32px" x="4735" y="2385">5120 × 2880
      </text>
    </g>
    <g id="R-5120x2160">
	    <path class="txtboxarrow" d="m 5120,2160 -40,-160"/>
      <rect x="4700" y="1900" width="380" height="105" class="txtbox-233"/>
      <text x="4890" y="1950">5K Ultrawide
      </text>
      <text style="font-size:32px" x="4890" y="1985">5120 × 2160
      </text>
    </g>
    <g id="R-4096x2160">
	    <path class="txtboxarrow" d="m 4096,2160 -125,-360"/>
      <rect x="3700" y="1700" width="270" height="105" class="txtbox-189"/>
      <text x="3835" y="1750">4K</text>
      <text style="font-size:32px" x="3835" y="1785">4096 × 2160</text>
    </g>
    <g id="UHD-1-3840x2160">
	    <rect x="3300" y="1800" width="270" height="105" class="txtbox-178"/>
	    <text x="3435" y="1850">UHD-1</text>
	    <text x="3435" y="1885" style="font-size:32px">3840 × 2160</text>
	    <path class="txtboxarrow" d="m 3840,2160 -270,-260"/>
    </g>
    <g id="UWQHD-3440x1440">
      <rect x="3000" y="1100" width="300" height="105" class="txtbox-233"/>
      <text x="3150" y="1150">UWQHD</text>
      <text style="font-size:32px" x="3150" y="1185">3440 × 1440</text>
	    <path class="txtboxarrow" d="m 3440,1440 -140,-240"/>
    </g>
    <g id="QSXGA-2560x2048">
      <rect x="2000" y="1930" width="270" height="105" class="txtbox-125"/>
      <text x="2135" y="1980">QSXGA</text>
      <text style="font-size:32px" x="2135" y="2015">2560 × 2048</text>
	    <path class="txtboxarrow" d="m 2560,2048 -290,-20"/>
    </g>
    <g id="WQXGA-2560x1600">
      <rect x="2170" y="1740" width="270" height="105" class="txtbox-160"/>
      <text x="2305" y="1795">WQXGA</text>
      <text style="font-size:32px" x="2305" y="1833">2560 × 1600</text>
	    <path class="txtboxarrow" d="m 2560,1600 -120,140"/>
    </g>
    <g id="WQHD-2560x1440">
	    <path class="txtboxarrow" d="m 2560,1440 150,-100"/>
      <rect x="2700" y="1240" width="270" height="105" class="txtbox-178"/>
      <text x="2835" y="1290">WQHD</text>
      <text style="font-size:32px" x="2835" y="1325">2560 × 1440</text>
    </g>
    <g id="UWHD-2560x1080">
	    <path class="txtboxarrow" d="m 2560,1080 140,-100"/>
      <rect x="2700" y="900" width="300" height="105" class="txtbox-233"/>
      <text x="2850" y="950">UWHD</text>
      <text style="font-size:32px" x="2850" y="985">2560 × 1080</text>
    </g>
    <g id="QXGA-2048x1536">
	    <path class="txtboxarrow" d="m 2048,1536 -180,60"/>
      <rect x="1600" y="1590" width="270" height="105" class="txtbox-133"/>
      <text x="1735" y="1640">QXGA</text>
      <text style="font-size:32px" x="1735" y="1675">2048 × 1536</text>
    </g>
    <g id="R-2048x1080">
	    <path class="txtboxarrow" d="m 2048,1080 145,-40"/>
        <rect x="2190" y="940" width="270" height="105" class="txtbox-189"/>
        <text x="2325" y="990">2K‡</text>
        <text style="font-size:32px" x="2325" y="1025">2048 × 1080</text>
    </g>
    <g id="WUXGA-1920x1200">
	    <path class="txtboxarrow" d="m 1920,1200 310,-20"/>
      <rect x="2230" y="1090" width="270" height="105" class="txtbox-160"/>
      <text x="2365" y="1140">WUXGA</text>
      <text style="font-size:32px" x="2365" y="1175">1920 × 1200</text>
    </g>
		<g id="Full-HD-1920x1080">
	    <path class="txtboxarrow" d="m 1920,1080 190,-190"/>
	    <rect x="2100" y="790" width="270" height="105" class="txtbox-178"/>
	    <text x="2235" y="840">Full HD
	    </text>
	    <text style="font-size:32px" x="2235" y="875">1920 × 1080</text>
		</g>
    <g id="WSXGAplus-1680x1050">
	    <path class="txtboxarrow" d="m 1680,1050 350,-300"/>
      <rect x="2030" y="650" width="270" height="105" class="txtbox-160"/>
      <text x="2165" y="700">WSXGA+</text>
      <text style="font-size:32px" x="2165" y="735">1680 × 1050</text>
    </g>
    <g id="UXGA-1600x1200">
	    <path class="txtboxarrow" d="m 1600,1200 -30,300"/>
      <rect x="1300" y="1500" width="270" height="105" class="txtbox-133"/>
      <text x="1435" y="1550">UXGA</text>
      <text style="font-size:32px" x="1435" y="1585">1600 × 1200</text>
    </g>
    <g id="SXGAplus-1400x1050">
	    <path class="txtboxarrow" d="m 1400,1050 -80,300"/>
      <rect x="1050" y="1350" width="270" height="105" class="txtbox-133"/>
      <text x="1185" y="1400">SXGA+</text>
      <text style="font-size:32px" x="1185" y="1435">1400 × 1050</text>
    </g>
    <g id="R-1600x900">
	    <path class="txtboxarrow" d="m 1600,900 130,-20"/>
      <rect x="1730" y="850" width="220" height="55" class="txtbox-178"/>
      <text style="font-size:32px" x="1840" y="890">1600 × 900</text>
    </g>
<!--
    <g id="1440x1080">
	    <path
	       class="txtboxarrow"
	       d="m 1440,1080 130,-20" />
      <rect
         x="1059"
         y="950"
         width="230"
         height="55"
         style="fill:#ef2929;stroke:#a40000;stroke-width:6;stroke-linejoin:round" />
      <text
         style="font-size:32px"
         x="1064"
         y="1099">1440 × 1080</text>
    </g>
-->
<!--
    <g id="R-1440x960">
      <rect
         x="1730"
         y="854"
         width="229"
         height="56"
			   class="txtbox-150" />
      <text
         style="font-size:32px"
         x="1659"
         y="895">1440 × 960</text>
    </g>
-->
    <g id="R-1440x900">
	    <path class="txtboxarrow" d="m 1400,900 330,-70"/>
      <rect x="1730" y="780" width="220" height="55" class="txtbox-160"/>
      <text style="font-size:32px" x="1840" y="820">1440 × 900</text>
    </g>
    <g id="R-1366x768">
	    <path class="txtboxarrow" d="m 1366,768 95,-40"/>
      <rect x="1455" y="675" width="230" height="55" class="txtbox-178"/>
      <text style="font-size:32px" x="1570" y="715">1366 × 768</text>
    </g>
    <g id="SXGA-1280x1024">
	    <path class="txtboxarrow" d="m 1280,1024 -60,160"/>
      <rect x="950" y="1180" width="270" height="105" class="txtbox-125"/>
      <text x="1085" y="1230">SXGA</text>
      <text style="font-size:32px" x="1085" y="1265">1280 × 1024</text>
    </g>
<!--
    <g id="1280x960">
	    <path
	       class="txtboxarrow"
	       d="m 1280,960 80,201" />
      <rect
         x="950"
         y="1110"
         width="220"
         height="55"
         style="fill:#ef2929;stroke:#a40000;stroke-width:6;stroke-linejoin:round" />
      <text
         style="font-size:32px"
         x="990"
         y="1145">1280 × 960</text>
    </g>
-->
<!--
    <g id="1280x854">
	    <path
	       class="txtboxarrow"
	       d="m 1280,854 80,201" />
      <rect
         x="950"
         y="1040"
         width="220"
         height="55"
         style="fill:#8ae234;stroke:#4e9a06;stroke-width:6;stroke-linejoin:round" />
      <text
         style="font-size:32px"
         x="990"
         y="1075">1280 × 854</text>
    </g>
-->
    <g id="WXGA-1280x800">
	    <path class="txtboxarrow" d="m 1280,800 450,-50"/>
      <rect x="1730" y="650" width="270" height="105" class="txtbox-160"/>
      <text x="1865" y="700">WXGA</text>
      <text style="font-size:32px" x="1865" y="735">1280 × 800</text>
    </g>
    <g id="WXGA-1280x768">
	    <path class="txtboxarrow" d="m 1280,768 320,-240"/>
      <rect x="1600" y="425" width="270" height="105" class="txtbox-167"/>
      <text x="1735" y="475">WXGA</text>
      <text style="font-size:32px" x="1735" y="510">1280 × 768</text>
    </g>
		<g id="HD-1280x720">
	    <path class="txtboxarrow" d="m 1280,720 320,-340"/>
	    <rect x="1600" y="280" width="270" height="105" class="txtbox-178"/>
	    <text x="1735" y="330">HD</text>
	    <text style="font-size:32px" x="1735" y="365">1280 × 720</text>
    </g>
    <g id="XGAplus-1152x864">
	    <path class="txtboxarrow" d="m 1152,864 -145,55"/>
      <rect x="740" y="920" width="270" height="105" class="txtbox-133"/>
      <text x="875" y="970">XGA+</text>
      <text style="font-size:32px" x="875" y="1005">1152 × 864</text>
    </g>
<!--
    <g id="1152x768">
      <rect
         x="1181"
         y="508"
         width="230"
         height="55"
         style="fill:#8ae234;stroke:#4e9a06;stroke-width:6;stroke-linejoin:round" />
      <text
         style="font-size:32px"
         x="1296"
         y="548">1152 × 768</text>
    </g>
-->
    <g id="XGA-1024x768">
	    <path class="txtboxarrow" d="m 1024,768 -305,150"/>
      <rect x="450" y="920" width="270" height="105" style="fill:#ef2929;stroke:#a40000;stroke-width:6;stroke-linejoin:round"/>
      <text x="585" y="970">XGA</text>
      <text style="font-size:32px" x="585" y="1005">1024 × 768</text>
    </g>
<!--
    <g id="WSVGA-1024x576">
	    <path
	       class="txtboxarrow"
	       d="m 1024,576 50,-120" />
      <rect
         x="1070"
         y="380"
         width="270"
         height="105"
         style="fill:#729fcf;stroke:#204a87;stroke-width:6;stroke-linejoin:round" />
      <text
         x="1110"
         y="430">WSVGA</text>
      <text
         style="font-size:32px"
         x="1110"
         y="465">1024 × 576</text>
    </g>
-->
    <g id="PAL-1024x576">
			<path class="txtboxarrow" d="m 1024,576 25,-205"/>
      <rect x="1050" y="270" width="270" height="105" class="txtbox-178"/>
      <text x="1185" y="320">PAL†</text>
      <text style="font-size:32px" x="1185" y="355">1024 × 576</text>
    </g>
    <g id="WVGA-854x480">
	    <path class="txtboxarrow" d="m 854,480 85,-225"/>
      <rect x="940" y="150" width="320" height="105" class="txtbox-178"/>
      <text x="1040" y="200">WVGA</text>
      <text style="font-size:32px" x="1190" y="200">(NTSC†)</text>
      <text style="font-size:32px" x="1100" y="235">854 × 480</text>
    </g>
    <g id="SVGA-800x600">
	    <path class="txtboxarrow" d="m 800,600 -80,200"/>
      <rect x="450" y="795" width="270" height="105" class="txtbox-133"/>
      <text x="520" y="845">SVGA</text>
      <text style="font-size:32px" x="520" y="880">800 × 600</text>
    </g>
    <g id="WVGA-800x480">
	    <path class="txtboxarrow" d="m 800,480 50,-350"/>
      <rect x="850" y="30" width="270" height="105" class="txtbox-167"/>
      <text x="985" y="80">WVGA</text>
      <text style="font-size:32px" x="985" y="115">800 × 480</text>
    </g>
    <g id="PAL-768x576">
	    <path class="txtboxarrow" d="m 768,576 -120,90"/>
      <rect x="380" y="665" width="270" height="105" class="txtbox-133"/>
      <text x="515" y="720">PAL*</text>
      <text style="font-size:32px" x="515" y="755">768 × 576</text>
    </g>
    <g id="VGA-640x480">
	    <path class="txtboxarrow" d="m 640,480 -120,60"/>
      <rect x="260" y="540" width="270" height="105" class="txtbox-133"/>
      <text x="330" y="590">VGA</text>
      <text style="font-size:32px" x="460" y="590">(NTSC*)</text>
      <text style="font-size:32px" x="395" y="625">640 × 480</text>
    </g>
    <g id="HVGA-480x320">
	    <path class="txtboxarrow" d="m 480,320 120,30"/>
      <rect x="600" y="250" width="230" height="105" class="txtbox-150"/>
      <text x="715" y="300">HVGA</text>
      <text style="font-size:32px" x="715" y="335">480 × 320</text>
    </g>
    <g id="SIF-384x288">
			<path class="txtboxarrow" d="m 384,288 -90,130"/>
      <rect x="45" y="420" width="250" height="105" class="txtbox-133"/>
      <text x="140" y="470">SIF**</text>
      <text style="font-size:32px" x="140" y="505">384 × 288</text>
    </g>
<!--
    <g id="CIF-352x288">
			<path
				class="txtboxarrow"
				d="m 352,288 150,-70" />
      <rect
         x="500"
         y="120"
         width="180"
         height="105"
         style="fill:#babdb6;stroke:#2e3436;stroke-width:6;stroke-linejoin:round" />
      <text
         x="590"
         y="180">CIF</text>
      <text
         style="font-size:32px"
         x="590"
         y="215">352 × 288</text>
    </g>
-->
    <g id="QVGA-320x240">
	    <path class="txtboxarrow" d="m 320,240 -90,50"/>
      <rect x="10" y="290" width="220" height="105" class="txtbox-133"/>
      <text x="120" y="340">QVGA</text>
      <text style="font-size:32px;" x="120" y="375">320 × 240</text>
    </g>
    <g id="CGA-320x200">
			<path class="txtboxarrow" d="M 320,200 400,110"/>
      <rect x="400" y="10" width="200" height="105" class="txtbox-160"/>
      <text x="500" y="60">CGA</text>
      <text style="font-size:32px" x="500" y="95">320 × 200</text>
    </g>
	</g>
	<g id="Group-of-Circles">
    <g id="Circle-21:9">
      <circle style="fill:#ffc0cb;stroke:#b03060" cx="3100" cy="1300" r="50"/>
      <text class="crcl-txt" x="3100" y="1310">21:9</text>
    </g>
    <g id="Circle-17:9">
      <circle style="fill:#e9b96e;stroke:#8f5902" cx="3060" cy="1610" r="50"/>
      <text class="crcl-txt" x="3060" y="1620">17:9</text>
    </g>
    <g id="Circle-16:9">
      <circle style="fill:#729fcf;stroke:#204a87" cx="2900" cy="1630" r="50"/>
      <text class="crcl-txt" x="2900" y="1640">16:9</text>
    </g>
    <g id="Circle-8:5">
      <circle style="fill:#ad7fa8;stroke:#5c3566" cx="2790" cy="1750" r="50"/>
      <text class="crcl-txt" x="2790" y="1760">8:5</text>
	    </g>
    <g id="Circle-5:4">
      <circle style="fill:#fce94f;stroke:#c4a000" cx="2700" cy="2160" r="50"/>
      <text class="crcl-txt" x="2700" y="2170">5:4</text>
    </g>
    <g id="Circle-5:3">
      <circle style="fill:#fcaf3e;stroke:#ce5c00" cx="3000" cy="1790" r="50"/>
      <text class="crcl-txt" x="3000" y="1800">5:3</text>
    </g>
    <g id="Circle-4:3">
      <circle style="fill:#ef2929;stroke:#a40000" cx="2650" cy="1990" r="50"/>
      <text class="crcl-txt" x="2650" y="2000">4:3</text>
    </g>
    <g id="Circle-3:2">
      <circle style="fill:#8ae234;stroke:#4e9a06" cx="2860" cy="1910" r="50"/>
      <text class="crcl-txt" x="2860" y="1920">3:2</text>
    </g>
	</g>
	<g>
		<text xml:space="preserve" style="font-size:3em;text-align:start;text-anchor:start">
			<tspan y="2631" x="27">*  NTSC and PAL/SECAM are analog video standards with no fixed horizontal resolution. The resolutions</tspan>
			<tspan x="27" y="2739">    depicted here for 4:3 aspect ratio assume square pixels, but the actual horizontal resolution (in non-square</tspan>
			<tspan x="27" y="2847">    pixels) ranges from 320 (VHS/Betamax) to 720 (DVD) for both standards.</tspan>
			<tspan x="27" y="2955">** Although computer industry defines SIF as 384 × 288 for PAL countries (for NTSC countries, it is equivalent</tspan>
			<tspan x="27" y="3063">    to QVGA), MPEG-1 defines it as 352 × 288 (CIF) or 360 × 288 (for NTSC: 352 × 240 or 360 × 240).</tspan>
			<tspan x="27" y="3171">†  The resolutions depicted here for 16:9 widescreen NTSC and PAL/SECAM assume square pixels, but the</tspan>
			<tspan x="27" y="3279">    actual horizontal resolution (in non-square pixels) ranges from 520 (PALplus) to 720 (DVD).</tspan>
			<tspan x="27" y="3387">‡  Although Digital Cinema System specifies 2K at the depicted resolution in square pixels, in some</tspan>
			<tspan x="27" y="3495">    situations it can assume non-square pixels and go as high as 2048 × 1536. Aspect ratio 17:9 is approximate.</tspan>
		</text>
	</g>
</svg>